HIERARCHY
ROOT Hips
{
	OFFSET 0.000000 0.000000 0.000000
	CHANNELS 6 Xposition Yposition Zposition Zrotation Yrotation Xrotation 
	JOINT LHipJoint
	{
		OFFSET 0.000000 0.000000 0.000000
		CHANNELS 3 Zrotation Yrotation Xrotation
		JOINT LeftUpLeg
		{
			OFFSET 1.363060 -1.794630 0.839290
			CHANNELS 3 Zrotation Yrotation Xrotation
			JOINT LeftLeg
			{
				OFFSET 2.448110 -6.726130 0.000000
				CHANNELS 3 Zrotation Yrotation Xrotation
				JOINT LeftFoot
				{
					OFFSET 2.562200 -7.039590 0.000000
					CHANNELS 3 Zrotation Yrotation Xrotation
					JOINT LeftToeBase
					{
						OFFSET 0.157640 -0.433110 2.322550
						CHANNELS 3 Zrotation Yrotation Xrotation
						End Site
						{
							OFFSET 0.000000 0.000000 0.000000
						}
					}
				}
			}
		}
	}
	JOINT RHipJoint
	{
		OFFSET 0.000000 0.000000 0.000000
		CHANNELS 3 Zrotation Yrotation Xrotation
		JOINT RightUpLeg
		{
			OFFSET -1.305520 -1.794630 0.839290
			CHANNELS 3 Zrotation Yrotation Xrotation
			JOINT RightLeg
			{
				OFFSET -2.542530 -6.985550 0.000000
				CHANNELS 3 Zrotation Yrotation Xrotation
				JOINT RightFoot
				{
					OFFSET -2.568260 -7.056230 0.000000
					CHANNELS 3 Zrotation Yrotation Xrotation
					JOINT RightToeBase
					{
						OFFSET -0.164730 -0.452590 2.363150
						CHANNELS 3 Zrotation Yrotation Xrotation
						End Site
						{
							OFFSET 0.000000 0.000000 0.000000
						}
					}
				}
			}
		}
	}
	JOINT LowerBack
	{
		OFFSET 0.000000 0.000000 0.000000
		CHANNELS 3 Zrotation Yrotation Xrotation
		JOINT Spine
		{
			OFFSET 0.028270 2.035590 -0.193380
			CHANNELS 3 Zrotation Yrotation Xrotation
			JOINT Spine1
			{
				OFFSET 0.056720 2.048850 -0.042750
				CHANNELS 3 Zrotation Yrotation Xrotation
				JOINT Neck
				{
					OFFSET 0.000000 0.000000 0.000000
					CHANNELS 3 Zrotation Yrotation Xrotation
					JOINT Neck1
					{
						OFFSET -0.054170 1.746240 0.172020
						CHANNELS 3 Zrotation Yrotation Xrotation
						JOINT Head
						{
							OFFSET 0.104070 1.761360 -0.123970
							CHANNELS 3 Zrotation Yrotation Xrotation
							End Site
							{
								OFFSET 0.000000 0.000000 0.000000
							}
						}
					}
				}
				JOINT LeftShoulder
				{
					OFFSET 0.000000 0.000000 0.000000
					CHANNELS 3 Zrotation Yrotation Xrotation
					JOINT LeftArm
					{
						OFFSET 3.362410 1.200890 -0.311210
						CHANNELS 3 Zrotation Yrotation Xrotation
						JOINT LeftForeArm
						{
							OFFSET 4.983000 -0.000000 -0.000000
							CHANNELS 3 Zrotation Yrotation Xrotation
							JOINT LeftHand
							{
								OFFSET 3.483560 -0.000000 -0.000000
								CHANNELS 3 Zrotation Yrotation Xrotation
								JOINT LeftFingerBase
								{
									OFFSET 0.000000 0.000000 0.000000
									CHANNELS 3 Zrotation Yrotation Xrotation
									JOINT LeftHandIndex1
									{
										OFFSET 0.715260 -0.000000 -0.000000
										CHANNELS 3 Zrotation Yrotation Xrotation
										End Site
										{
											OFFSET 0.000000 0.000000 0.000000
										}
									}
								}
								JOINT LThumb
								{
									OFFSET 0.000000 0.000000 0.000000
									CHANNELS 3 Zrotation Yrotation Xrotation
									End Site
									{
										OFFSET 0.000000 0.000000 0.000000
									}
								}
							}
						}
					}
				}
				JOINT RightShoulder
				{
					OFFSET 0.000000 0.000000 0.000000
					CHANNELS 3 Zrotation Yrotation Xrotation
					JOINT RightArm
					{
						OFFSET -3.136600 1.374050 -0.404650
						CHANNELS 3 Zrotation Yrotation Xrotation
						JOINT RightForeArm
						{
							OFFSET -5.241900 -0.000000 -0.000000
							CHANNELS 3 Zrotation Yrotation Xrotation
							JOINT RightHand
							{
								OFFSET -3.444170 -0.000000 -0.000000
								CHANNELS 3 Zrotation Yrotation Xrotation
								JOINT RightFingerBase
								{
									OFFSET 0.000000 0.000000 0.000000
									CHANNELS 3 Zrotation Yrotation Xrotation
									JOINT RightHandIndex1
									{
										OFFSET -0.622530 -0.000000 -0.000000
										CHANNELS 3 Zrotation Yrotation Xrotation
										End Site
										{
											OFFSET 0.000000 0.000000 0.000000
										}
									}
								}
								JOINT RThumb
								{
									OFFSET 0.000000 0.000000 0.000000
									CHANNELS 3 Zrotation Yrotation Xrotation
									End Site
									{
										OFFSET 0.000000 0.000000 0.000000
									}
								}
							}
						}
					}
				}
			}
		}
	}
}
MOTION
Frames: 9
Frame Time: 0.008333
-38.462676 16.725438 -1.074287 173.895485 53.401918 178.834294 2.568764 0.012530 -1.039463 -20.610577 -10.122425 -17.509037 3.857492 14.743626 42.302545 2.392477 -15.783503 -6.272425 0.009900 0.643200 1.767400 -4.157590 -0.453660 -1.107814 18.863138 -5.500643 -15.279070 -10.587019 -18.013919 62.222851 2.708399 -14.641501 -6.046783 -2.742900 10.266700 -29.844900 -5.507455 5.027606 14.546131 -0.509046 6.357438 -2.268989 2.047763 3.184588 2.592748 -20.997655 -18.033743 5.885794 13.923055 -32.346168 0.647588 15.627800 -14.080500 3.786900 -0.827644 0.647000 5.768123 57.301560 -54.559220 -90.627035 67.565465 -57.878277 -45.194449 -0.177847 -1.531003 -28.135254 22.945803 21.521607 9.687500 -7.125000 0.000000 0.000000 -5.512200 54.506200 -1.290400 -6.023574 -3.150253 11.239856 -93.601721 68.238048 -141.892346 -67.923768 65.514191 -50.442529 0.659968 -0.211986 -1.003729 -80.735975 50.415987 -78.407700 7.125000 0.000000 0.000000 -16.181700 50.726700 -22.985300 
-38.462676 16.719827 -1.057455 173.564544 53.006992 178.844168 2.583957 -0.041952 -1.145066 -20.860154 -10.355281 -17.974122 3.982493 14.925003 42.753602 2.458412 -14.504554 -8.110156 0.373300 -3.924200 -10.863600 -4.181448 -0.427851 -1.175887 19.128727 -5.557476 -15.186205 -10.513218 -17.982779 61.981447 2.893034 -15.490143 -6.417091 -2.799000 10.362400 -30.158400 -5.541227 5.099003 14.837378 -0.433354 6.467827 -2.061115 1.738127 3.299463 1.275917 -20.886382 -18.670281 6.730539 13.845705 -33.488156 0.306652 15.116300 -14.428800 3.557100 -0.682683 0.577053 6.484692 55.870959 -55.241706 -89.627172 68.967612 -58.189274 -46.515571 -0.179019 -1.523195 -28.112005 23.557348 21.694698 10.029200 -7.125000 0.000000 0.000000 -4.930900 54.803500 -1.189500 -6.011313 -2.844626 8.261049 -97.796492 72.992491 -145.880791 -68.181313 63.954568 -50.727282 0.742647 -0.233877 -0.817486 -80.297383 50.900253 -77.964700 7.125000 0.000000 0.000000 -15.856400 50.519000 -22.525700 
-38.460696 16.724448 -1.044804 173.356900 52.283121 179.059794 2.555340 -0.218617 -1.384189 -21.044902 -10.692851 -18.278882 4.103261 15.077004 43.168998 2.528372 -13.141853 -10.164611 1.675100 -8.153800 -23.182300 -4.263545 -0.500432 -1.300181 19.467953 -5.799834 -15.087032 -10.389941 -17.966937 61.619328 3.087902 -16.386789 -6.805926 -2.779300 10.328900 -30.048600 -5.213988 5.508447 15.448466 -0.364753 6.938784 -1.944529 0.670818 3.912958 -2.606117 -21.252565 -18.048077 9.462481 13.496079 -33.494716 0.942796 15.129700 -14.430600 3.543200 -0.408212 -0.811499 8.807380 54.555089 -56.524003 -88.457604 70.148455 -58.671365 -47.767234 -0.172335 -1.514719 -27.866929 23.891266 21.988401 10.295700 -7.125000 0.000000 0.000000 -4.693900 55.179500 -1.175100 -6.757686 -1.193244 -1.323320 -110.950261 86.945829 -155.727199 -69.939298 57.185154 -51.709642 0.785466 -0.321246 -1.176212 -80.311527 50.623389 -78.029400 7.125000 0.000000 0.000000 -15.921900 50.542600 -22.619200 
-38.458716 16.725328 -1.032372 173.247093 51.240538 179.082021 2.507783 -0.571406 -1.449299 -21.187474 -11.175147 -18.363434 4.230239 15.095524 43.524917 2.545858 -12.745530 -10.820454 2.046200 -8.961600 -25.675300 -4.270299 -0.873197 -1.012333 19.732717 -5.959626 -15.110453 -10.244104 -17.992236 61.218175 3.234736 -17.050371 -7.054314 -2.573100 9.969500 -28.878200 -5.149476 6.719945 15.007938 -0.589440 8.109331 -2.235069 0.421995 5.176856 -5.156015 -20.908118 -17.345212 14.779731 13.577985 -33.416355 0.610911 15.631200 -14.307400 3.624700 0.132575 -5.904450 12.101171 52.391654 -56.943690 -86.875125 71.331458 -58.958404 -49.097687 -0.059213 -1.563589 -27.995916 23.538928 22.217053 10.236900 -7.125000 0.000000 0.000000 -5.261200 55.450700 -1.352300 -8.456692 5.498058 -13.294445 45.904645 72.371994 10.931526 -76.841535 53.078820 -54.387449 0.357071 -0.234159 -3.216688 -81.017351 48.241973 -78.374400 7.125000 0.000000 0.000000 -16.331900 50.648200 -23.207100 
-38.459926 16.712016 -1.015430 173.001580 50.953466 179.105812 2.558230 -0.560545 -1.428290 -21.317339 -11.571478 -18.719717 4.280988 15.188594 43.774043 2.507998 -13.312611 -10.000262 1.368600 -7.404100 -20.918200 -4.219944 -0.844853 -0.965825 19.877874 -5.847157 -15.090827 -10.137759 -17.923797 60.908830 3.332619 -17.528904 -7.800456 -2.385800 9.627200 -27.777800 -5.286022 6.626969 14.947502 -0.638853 8.003510 -2.266523 0.586341 5.051208 -4.358897 -21.053481 -17.748085 14.766189 14.471643 -33.975144 -1.005763 16.226700 -14.203100 3.239900 0.057631 -5.597487 11.672064 50.999027 -57.198628 -85.829667 73.044448 -59.137092 -50.555405 -0.032693 -1.536279 -28.308130 24.126490 22.440308 10.585500 -7.125000 0.000000 0.000000 -4.741800 55.791400 -1.257600 -8.146910 5.822717 -11.461034 41.748323 73.638788 5.569695 -78.044525 55.631048 -55.318297 0.279534 -0.279054 -3.714793 -81.170855 47.685501 -78.502900 7.125000 0.000000 0.000000 -16.279100 50.761800 -23.124200 
-38.460806 16.696834 -0.995407 172.884610 50.733447 179.284645 2.606045 -0.527273 -1.424932 -21.314907 -11.905813 -19.162515 4.329899 15.290581 44.011666 2.479095 -13.759476 -9.372232 0.968500 -6.265600 -17.556900 -4.185284 -0.763029 -0.979157 20.104908 -5.656218 -15.080093 -10.025965 -17.864433 60.612774 3.429643 -18.042923 -8.765380 -2.361700 9.582000 -27.633500 -5.345650 6.476817 14.958785 -0.645206 7.893217 -2.252814 0.872866 4.872525 -3.336771 -21.130892 -17.983804 13.986070 14.949424 -34.146406 -1.729796 16.518000 -14.100900 2.999400 -0.053769 -4.800822 10.926952 49.878542 -57.626307 -84.999347 74.634430 -59.255430 -51.905670 -0.069897 -1.468535 -27.894305 26.206161 22.490136 11.570700 -7.125000 0.000000 0.000000 -2.503300 56.214800 -0.688800 -7.661401 5.185878 -8.675611 37.067926 76.838943 -0.019352 -78.606881 57.171643 -55.883683 0.273447 -0.317960 -3.747507 -81.251237 47.669342 -78.642000 7.125000 0.000000 0.000000 -16.114300 50.922300 -22.876900 
-38.461356 16.682752 -0.974945 172.805332 50.419125 179.487901 2.648920 -0.488394 -1.426310 -21.299670 -12.376604 -19.551010 4.387877 15.403024 44.256024 2.485782 -13.690191 -9.577991 1.052200 -6.522700 -18.308700 -4.157928 -0.671628 -1.010070 20.341327 -5.530252 -15.079719 -9.924440 -17.808512 60.338290 3.542541 -18.620482 -9.625544 -2.383900 9.623700 -27.766600 -5.403526 6.243345 14.994315 -0.624553 7.692507 -2.227021 1.294188 4.634922 -2.287294 -21.331588 -18.289159 13.075748 15.345996 -34.506989 -2.302429 16.672700 -14.107300 2.897200 -0.171969 -3.973083 10.099662 48.389662 -58.075312 -83.942199 76.176441 -59.335532 -53.290143 -0.087903 -1.419695 -27.337778 27.341063 22.662324 12.179000 -7.125000 0.000000 0.000000 -1.322300 56.601000 -0.376100 -7.191547 4.313665 -5.776460 30.263997 80.492835 -7.198983 -79.220015 58.007431 -56.407347 0.279708 -0.349939 -3.633238 -81.482605 47.796554 -79.002300 7.125000 0.000000 0.000000 -15.971000 51.234600 -22.652200 
-38.458826 16.667681 -0.953492 172.860688 50.104847 179.640652 2.676941 -0.459353 -1.430951 -21.198339 -12.732151 -19.781562 4.443126 15.490711 44.467365 2.499282 -13.620777 -9.816534 1.215300 -6.992900 -19.694500 -4.142005 -0.605696 -1.035041 20.665395 -5.370707 -14.919280 -9.830451 -17.758986 60.098542 3.643179 -19.164062 -10.462740 -2.344100 9.548800 -27.527500 -5.347317 6.096219 15.247571 -0.603439 7.582093 -2.201163 1.487124 4.479769 -1.671496 -21.274370 -18.712262 12.559299 15.570194 -35.039104 -2.741482 16.592100 -14.233100 2.768900 -0.236691 -3.410375 9.484763 46.713596 -58.740028 -82.809570 78.060467 -59.486162 -55.010239 -0.074098 -1.393274 -27.398254 27.361089 22.943979 12.300800 -7.125000 0.000000 0.000000 -1.406600 56.886900 -0.409800 -6.845178 3.685105 -3.764687 23.585439 82.977000 -13.745761 -79.704909 58.291360 -56.745673 0.280493 -0.370566 -3.596295 -81.457284 48.329302 -79.072100 7.125000 0.000000 0.000000 -15.385100 51.483300 -21.793800 
-38.453765 16.650958 -0.929949 172.826312 49.765449 179.689117 2.698876 -0.444958 -1.440391 -21.141478 -13.019767 -19.978435 4.480528 15.555496 44.626316 2.489534 -13.884691 -9.532294 1.189900 -6.922000 -19.484500 -4.135183 -0.559971 -1.056725 20.909230 -5.266550 -14.797859 -9.769552 -17.727727 59.951738 3.724859 -19.616665 -11.155805 -2.306500 9.477200 -27.299900 -5.354060 6.038190 15.567888 -0.585017 7.555976 -2.176216 1.656741 4.402682 -1.270794 -21.211964 -19.009113 12.121631 15.568648 -35.372724 -2.779980 16.361800 -14.389600 2.831800 -0.297252 -3.067132 9.022573 45.260588 -59.687652 -82.158104 80.030036 -59.655805 -56.817859 -0.045765 -1.368929 -27.412950 26.520801 23.253393 11.999500 -7.125000 0.000000 0.000000 -2.471500 57.015400 -0.727900 -6.612188 3.212845 -2.412443 17.697424 84.426409 -19.107278 -80.340773 58.419954 -57.176732 0.274470 -0.377776 -3.614456 -81.384639 48.640922 -79.030000 7.125000 0.000000 0.000000 -15.001500 51.580800 -21.236700 
